<svg data-v-54feb754="" version="1.0" xmlns="http://www.w3.org/2000/svg" xmlns:xlink="http://www.w3.org/1999/xlink" width="100%" height="100%" viewBox="0 0 340.000000 250.000000" preserveAspectRatio="xMidYMid meet" color-interpolation-filters="sRGB" class="el-tooltip" style="margin: auto;"><rect data-v-54feb754="" x="0" y="0" width="100%" height="100%" fill="#fff" fill-opacity="1"></rect> <rect data-v-54feb754="" x="0" y="0" width="100%" height="100%" fill="url(#watermark)" fill-opacity="1" class="watermarklayer"></rect> <g data-v-54feb754="" fill="#333" class="newinitialsvg-g newinitialsvg" transform="translate(96.03250122070312,109.82750034332275)"><g class="tp-name"><g transform="translate(0, 0)" mask="url(#9cb83452-c417-4504-ad7c-811e7e11c89c)"><rect fill="#333" x="0" y="0" width="30.435" height="30.345000000000002"></rect> <g fill="#fff" transform="translate(3.0024998474121087,3)"><path d="M3.69-17.64Q3.69-18.09 3.87-18.40Q4.05-18.72 4.23-19.13L4.23-19.13Q4.32-19.48 4.34-19.87Q4.37-20.25 4.50-20.56L4.50-20.56Q4.86-21.33 5.42-21.76Q5.98-22.18 6.71-22.50L6.71-22.50Q7.11-22.63 7.33-22.79Q7.56-22.95 7.96-22.95L7.96-22.95Q8.82-22.95 9.92-22.61Q11.03-22.27 11.56-21.69L11.56-21.69Q11.74-21.55 11.81-21.24Q11.88-20.93 11.97-20.63Q12.06-20.34 12.11-20.11Q12.15-19.89 12.20-19.89L12.20-19.89Q12.24-19.89 12.31-19.93Q12.38-19.98 12.42-19.98L12.42-19.98L13.46-19.98Q13.50-19.98 13.59-20.00Q13.68-20.02 13.72-20.02L13.72-20.02Q14.85-20.02 15.77-19.39Q16.70-18.77 16.96-17.64L16.96-17.64Q16.96-17.64 17.28-17.95Q17.59-18.27 18.04-18.70Q18.50-19.13 19.08-19.46Q19.66-19.80 20.20-19.80L20.20-19.80L20.56-19.80Q21.46-19.39 21.80-18.77Q22.14-18.13 22.32-17.23L22.32-17.23L22.36-17.10Q22.27-16.70 22.43-16.31Q22.59-15.93 22.59-15.52L22.59-15.52Q22.59-15.25 22.61-14.76Q22.63-14.26 22.63-14.22L22.63-14.22Q22.68-13.72 22.79-13.23Q22.90-12.73 22.90-12.24L22.90-12.24Q22.90-12.15 22.84-12.04Q22.77-11.92 22.77-11.83L22.77-11.83Q22.77-11.79 22.84-11.72Q22.90-11.65 22.90-11.61L22.90-11.61L22.90-11.34Q22.90-11.21 22.86-11.07Q22.81-10.93 22.81-10.80L22.81-10.80Q22.81-10.57 22.95-10.48L22.95-10.48Q23.04-9.63 23.11-8.98Q23.18-8.32 23.58-7.65L23.58-7.65Q23.85-7.56 24.21-7.56L24.21-7.56Q24.52-7.56 24.84-7.69Q25.15-7.83 25.52-7.83L25.52-7.83Q25.88-7.83 26.28-7.69Q26.68-7.56 26.68-7.02L26.68-7.02Q26.68-6.61 26.37-6.28Q26.05-5.94 25.58-5.71Q25.11-5.49 24.61-5.35Q24.12-5.22 23.85-5.22L23.85-5.22Q22.27-5.22 21.35-6.12Q20.43-7.02 20.02-8.41L20.02-8.41Q19.93-8.78 19.98-9.16Q20.02-9.54 19.80-9.86L19.80-9.86L19.80-11.03L19.75-16.06L19.71-16.52Q19.44-16.25 19.01-15.71Q18.59-15.16 18.18-14.51Q17.77-13.86 17.46-13.25Q17.14-12.64 17.05-12.24L17.05-12.24Q16.96-11.65 16.94-10.98Q16.92-10.30 16.52-9.72L16.52-9.72Q16.52-9.40 16.36-8.87Q16.20-8.32 15.93-7.83Q15.66-7.33 15.30-6.97Q14.94-6.61 14.49-6.61L14.49-6.61Q14.22-6.61 13.88-6.79Q13.54-6.97 13.28-7.25Q13.00-7.51 12.80-7.85Q12.60-8.19 12.60-8.50L12.60-8.50Q12.60-9.58 13.12-10.57Q13.63-11.56 13.90-12.55L13.90-12.55Q14.13-13.54 14.26-14.38Q14.40-15.21 14.40-16.20L14.40-16.20Q14.35-16.47 14.33-16.85Q14.31-17.23 14.04-17.37L14.04-17.37L13.86-17.37Q13.46-17.37 13.07-17.19Q12.69-17.01 12.29-16.96L12.29-16.96Q11.92-16.61 11.50-16.20Q11.07-15.79 11.03-15.25L11.03-15.25Q10.98-15.03 11.03-14.85Q11.07-14.67 10.98-14.40L10.98-14.40Q10.89-14.17 10.69-13.99Q10.48-13.81 10.39-13.54L10.39-13.54Q10.13-12.87 10.08-12.24Q10.04-11.61 9.99-10.89L9.99-10.89Q9.99-10.62 9.74-10.28Q9.49-9.95 9.36-9.63L9.36-9.63Q9.31-9.58 9.20-9.29Q9.09-9 9.09-8.96L9.09-8.96Q8.91-8.50 8.84-7.94Q8.78-7.38 8.50-6.97L8.50-6.97Q8.01-6.12 7.13-5.83Q6.25-5.54 5.31-5.54L5.31-5.54Q4.32-5.54 3.46-5.96Q2.61-6.39 2.34-7.38L2.34-7.38Q2.29-7.96 2.27-8.62Q2.25-9.27 2.25-9.90L2.25-9.90Q2.25-10.75 2.34-11.68Q2.43-12.60 2.56-13.46L2.56-13.46Q2.61-13.86 2.70-14.20Q2.79-14.54 2.83-14.94L2.83-14.94Q2.83-15.03 2.88-15.12Q2.92-15.21 2.92-15.25L2.92-15.25Q3.01-15.66 3.42-16.22Q3.82-16.79 3.82-16.96L3.82-16.96Q3.73-17.19 3.71-17.30Q3.69-17.41 3.69-17.64L3.69-17.64Z" transform="translate(-2.25, 27.135)"></path></g></g><g transform="translate(34.435, 0)"><g fill="#333" transform="translate(0,3)"><path d="M2.25-23.49Q2.25-23.85 2.50-24.34Q2.75-24.84 3.08-25.29Q3.42-25.74 3.85-26.05Q4.27-26.37 4.59-26.37L4.59-26.37Q4.91-26.37 5.44-26.28Q5.98-26.19 6.46-26.01Q6.93-25.83 7.31-25.56Q7.69-25.29 7.79-24.88L7.79-24.88Q7.79-24.39 7.88-23.89Q7.96-23.40 7.96-22.90L7.96-22.90L7.96-22.45Q7.96-22.41 7.90-22.14Q7.83-21.87 7.79-21.73L7.79-21.73Q7.69-21.42 7.45-21.31Q7.20-21.20 6.97-21.02L6.97-21.02Q6.52-20.75 6.23-20.47Q5.94-20.20 5.35-20.20L5.35-20.20Q4.59-20.20 3.82-20.65Q3.06-21.11 2.79-21.82L2.79-21.82Q2.70-22.00 2.68-22.21Q2.65-22.41 2.56-22.59L2.56-22.59Q2.43-22.81 2.34-23.02Q2.25-23.22 2.25-23.49L2.25-23.49ZM2.97-12.69Q2.97-13.05 2.99-13.68Q3.01-14.31 3.08-14.98Q3.15-15.66 3.26-16.25Q3.38-16.83 3.60-17.19L3.60-17.19Q3.82-17.50 4.14-17.71Q4.46-17.91 4.81-18.09L4.81-18.09Q5.13-18.27 5.49-18.45Q5.85-18.63 6.25-18.63L6.25-18.63Q6.48-18.63 6.86-18.43Q7.25-18.22 7.56-17.91Q7.88-17.59 8.10-17.26Q8.32-16.92 8.32-16.65L8.32-16.65Q8.32-16.29 8.17-16.04Q8.01-15.79 8.01-15.48L8.01-15.48Q8.01-15.25 8.05-15.12Q8.10-14.98 8.10-14.76L8.10-14.76Q8.10-14.54 8.05-14.40L8.05-14.40L8.05-13.14L7.88-12.64Q7.92-12.20 7.90-11.77Q7.88-11.34 7.65-10.89L7.65-10.89Q7.60-10.35 7.63-9.90Q7.65-9.45 7.47-9L7.47-9Q7.47-8.82 7.51-8.64Q7.56-8.46 7.56-8.28L7.56-8.28Q7.56-8.10 7.51-8.01Q7.47-7.92 7.47-7.79L7.47-7.79Q7.47-7.60 7.51-7.45Q7.56-7.29 7.60-7.06L7.60-7.06Q7.69-6.75 7.69-6.34Q7.69-5.94 7.69-5.58L7.69-5.58Q7.69-4.63 7.04-4.21Q6.39-3.78 5.54-3.78L5.54-3.78Q4.95-3.78 4.50-4.50Q4.05-5.22 3.73-6.19Q3.42-7.15 3.26-8.08Q3.10-9 3.10-9.40L3.10-9.40Q3.10-9.63 3.15-9.76Q3.19-9.90 3.19-10.08L3.19-10.08Q3.19-10.53 3.15-10.98Q3.10-11.43 3.10-11.88L3.10-11.88Q3.06-11.97 3.04-12.08Q3.01-12.20 2.97-12.29L2.97-12.29L2.97-12.69Z" transform="translate(-2.25, 27.135)"></path></g></g><g transform="translate(44.51, 0)"><g fill="#333" transform="translate(0,3)"><path d="M2.25-17.28Q2.25-17.73 2.36-18.11Q2.48-18.50 2.52-18.95L2.52-18.95Q2.52-19.08 2.79-19.62Q3.06-20.16 3.15-20.38L3.15-20.38Q3.38-20.88 3.78-21.20Q4.18-21.51 4.63-21.82L4.63-21.82Q4.77-21.96 4.91-22.12Q5.04-22.27 5.17-22.41L5.17-22.41Q5.49-22.72 6.17-22.93Q6.84-23.13 7.25-23.13L7.25-23.13Q7.79-23.13 8.28-23.06Q8.78-22.99 9.31-22.90L9.31-22.90Q9.99-22.81 10.48-22.72Q10.98-22.63 11.56-22.09L11.56-22.09Q11.88-21.91 12.17-21.82Q12.46-21.73 12.73-21.51L12.73-21.51Q12.91-21.33 13.12-21.13Q13.32-20.93 13.50-20.70L13.50-20.70Q14.22-20.11 14.51-19.62Q14.80-19.13 14.80-18.18L14.80-18.18Q14.80-17.73 14.63-17.32Q14.45-16.92 14.26-16.47L14.26-16.47Q14.17-16.29 14.13-16.06Q14.08-15.84 13.90-15.62L13.90-15.62Q13.77-15.43 13.48-15.23Q13.18-15.03 12.82-14.92Q12.46-14.80 12.08-14.74Q11.70-14.67 11.43-14.67L11.43-14.67Q10.89-14.67 10.57-14.74Q10.26-14.80 10.04-14.94Q9.81-15.07 9.58-15.30Q9.36-15.52 9-15.84L9-15.84Q8.73-16.02 8.39-16.18Q8.05-16.34 7.79-16.52L7.79-16.52Q7.47-16.74 7.31-17.12Q7.15-17.50 6.71-17.50L6.71-17.50Q6.12-17.50 5.87-16.92Q5.63-16.34 5.63-15.84L5.63-15.84Q5.63-15.79 5.65-15.68Q5.67-15.57 5.67-15.52L5.67-15.52Q5.67-15.43 5.71-15.19Q5.76-14.94 5.76-14.85L5.76-14.85Q5.94-14.76 5.94-14.58Q5.94-14.40 6.12-14.26L6.12-14.26Q6.93-13.81 7.76-13.54Q8.59-13.28 9.40-12.82L9.40-12.82Q9.86-12.60 10.24-12.29Q10.62-11.97 11.07-11.70L11.07-11.70Q11.12-11.61 11.38-11.32Q11.65-11.03 11.74-10.93L11.74-10.93Q11.83-10.89 11.86-10.82Q11.88-10.75 11.97-10.66L11.97-10.66Q12.46-9.76 12.46-8.64L12.46-8.64Q12.46-7.51 11.99-6.68Q11.52-5.85 10.73-5.33Q9.95-4.81 8.93-4.57Q7.92-4.32 6.93-4.32L6.93-4.32Q6.39-4.32 5.76-4.54L5.76-4.54Q5.67-4.54 5.40-4.77Q5.13-5.00 5.13-5.22L5.13-5.22Q5.13-5.54 5.24-5.80Q5.35-6.08 5.76-6.08L5.76-6.08Q5.98-6.08 6.17-6.01Q6.34-5.94 6.57-5.94L6.57-5.94Q7.15-5.94 7.90-6.08Q8.64-6.21 9.25-6.52Q9.86-6.84 10.28-7.33Q10.71-7.83 10.71-8.59L10.71-8.59Q10.71-9.27 10.51-9.54Q10.30-9.81 9.76-10.26L9.76-10.26Q9.18-10.80 8.32-11.05Q7.47-11.29 6.61-11.52Q5.76-11.74 5.02-12.01Q4.27-12.29 3.78-12.82L3.78-12.82Q3.69-12.91 3.67-13.05Q3.65-13.18 3.55-13.28L3.55-13.28Q2.83-14.04 2.54-15.14Q2.25-16.25 2.25-17.28L2.25-17.28Z" transform="translate(-2.25, 27.135)"></path></g></g><g transform="translate(61.065, 0)"><g fill="#333" transform="translate(0,3)"><path d="M6.93-26.59Q7.15-27.13 7.69-27.13L7.69-27.13Q8.10-27.13 8.28-26.89Q8.46-26.64 8.55-26.26Q8.64-25.88 8.64-25.49Q8.64-25.11 8.64-24.84L8.64-24.84L8.64-24.39Q8.59-24.25 8.59-24.16L8.59-24.16Q8.59-23.98 8.62-23.83Q8.64-23.67 8.64-23.49L8.64-23.49Q8.64-23.09 8.59-22.68Q8.55-22.27 8.55-21.87L8.55-21.87Q8.78-21.87 8.98-21.91Q9.18-21.96 9.40-21.96L9.40-21.96Q9.67-21.96 9.90-21.80Q10.13-21.64 10.35-21.60L10.35-21.60Q10.80-21.55 11.23-21.49Q11.65-21.42 12.11-21.38L12.11-21.38L12.29-21.42Q12.55-21.42 12.96-21.26Q13.37-21.11 13.72-20.84Q14.08-20.56 14.33-20.25Q14.58-19.93 14.58-19.62L14.58-19.62Q14.58-19.35 14.47-18.72Q14.35-18.09 14.22-17.95L14.22-17.95Q13.86-17.50 13.52-17.05Q13.18-16.61 12.80-16.25Q12.42-15.88 11.92-15.64Q11.43-15.39 10.80-15.39L10.80-15.39Q10.57-15.39 10.30-15.43Q10.04-15.48 9.81-15.48L9.81-15.48L9.67-15.48Q9.13-15.25 8.80-15.19Q8.46-15.12 7.92-15.07L7.92-15.07Q7.83-14.85 7.85-14.58Q7.88-14.31 7.88-14.13L7.88-14.13Q7.79-13.99 7.76-13.93Q7.74-13.86 7.74-13.72L7.74-13.72Q7.74-13.54 7.79-13.41Q7.83-13.28 7.83-13.09L7.83-13.09Q7.83-12.96 7.79-12.82L7.79-12.82L7.79-11.21Q7.79-10.84 7.74-10.60Q7.69-10.35 7.69-10.04L7.69-10.04Q7.69-9.72 7.74-9.43Q7.79-9.13 7.79-8.78L7.79-8.78Q7.79-8.59 7.76-8.46Q7.74-8.32 7.74-8.10L7.74-8.10L7.74-7.69Q7.83-7.47 7.88-7.15Q7.92-6.84 8.01-6.52Q8.10-6.21 8.26-6.01Q8.41-5.80 8.73-5.80L8.73-5.80Q9.54-5.80 10.10-6.23Q10.66-6.66 11.12-7.20Q11.56-7.74 11.97-8.17Q12.38-8.59 12.82-8.59L12.82-8.59Q13.37-8.59 13.54-8.14Q13.72-7.69 13.72-7.25L13.72-7.25Q13.72-6.75 13.48-6.39Q13.23-6.03 12.96-5.67L12.96-5.67Q12.87-5.58 12.85-5.42Q12.82-5.26 12.73-5.13L12.73-5.13Q12.51-4.81 12.06-4.41Q11.61-4.00 11.07-3.65Q10.53-3.28 10.01-3.04Q9.49-2.79 9.09-2.79L9.09-2.79Q8.73-2.79 8.41-2.86Q8.10-2.92 7.74-2.92L7.74-2.92Q6.57-3.28 5.96-4.25Q5.35-5.22 5.13-6.34L5.13-6.34Q5.08-6.61 5.13-6.95Q5.17-7.29 5.04-7.56L5.04-7.56L5.04-8.01Q5.04-8.23 5.08-8.41Q5.13-8.59 5.13-8.82L5.13-8.82Q5.13-8.91 5.11-9Q5.08-9.09 5.08-9.18L5.08-9.18Q5.08-10.21 5.15-11.21Q5.22-12.20 5.26-13.23L5.26-13.23Q5.26-13.46 5.35-13.75Q5.44-14.04 5.44-14.26L5.44-14.26L5.44-14.35L5.44-15.03L5.44-15.12L5.44-15.21Q5.08-15.57 4.66-15.55Q4.23-15.52 3.78-15.62L3.78-15.62Q2.56-15.79 1.96-16.85Q1.35-17.91 1.35-19.04L1.35-19.04Q1.35-19.53 1.55-19.64Q1.75-19.75 1.98-20.11L1.98-20.11Q2.29-20.61 2.45-20.81Q2.61-21.02 3.19-21.20L3.19-21.20Q3.38-21.24 3.55-21.40Q3.73-21.55 3.82-21.64L3.82-21.64Q4.05-21.82 4.39-21.85Q4.72-21.87 5.00-21.87L5.00-21.87Q5.13-21.87 5.24-21.82Q5.35-21.78 5.44-21.78L5.44-21.78Q5.71-21.78 5.98-21.85Q6.25-21.91 6.48-21.96L6.48-21.96Q6.57-22.32 6.61-22.81Q6.66-23.31 6.79-23.67L6.79-23.67Q6.88-24.34 6.93-25.11Q6.97-25.88 6.93-26.59L6.93-26.59Z" transform="translate(-1.35, 27.135)"></path></g></g><g transform="translate(78.295, 0)"><g fill="#333" transform="translate(0,3)"><path d="M16.02-22.41Q16.25-22.41 16.65-21.82L16.65-21.82L16.65-21.33Q16.16-20.65 12.46-18.86L12.46-18.86Q9.67-16.83 9.67-16.38L9.67-16.38L9.67-16.20L10.48-12.01L10.30-11.70L10.48-11.12Q9.90-6.84 8.41-5.26L8.41-5.26Q6.61-4.14 5.94-4.14L5.94-4.14Q1.93-4.63 1.93-6.43L1.93-6.43Q2.83-13.05 2.83-14.35L2.83-14.35Q2.83-14.98 2.07-19.17L2.07-19.17Q2.07-20.20 4.23-21.64L4.23-21.64L5.49-21.64Q7.33-21.64 8.59-19.35L8.59-19.35Q13.72-22.41 15.57-22.41L15.57-22.41L16.02-22.41Z" transform="translate(-1.935, 27.135)"></path></g></g><g transform="translate(97.01, 0)"><g fill="#333" transform="translate(0,3)"><path d="M2.29-11.74Q2.29-12.11 2.29-12.60Q2.29-13.09 2.34-13.59Q2.38-14.08 2.45-14.56Q2.52-15.03 2.65-15.34L2.65-15.34Q2.75-15.57 2.92-15.77Q3.10-15.97 3.19-16.20L3.19-16.20Q3.33-16.52 3.35-16.85Q3.38-17.19 3.60-17.46L3.60-17.46Q4.77-19.26 6.43-20.61Q8.10-21.96 10.30-22.18L10.30-22.18Q10.53-22.23 10.73-22.30Q10.93-22.36 11.16-22.36L11.16-22.36L12.24-22.36Q12.60-22.36 13.05-22.27Q13.50-22.18 13.86-22.09L13.86-22.09Q14.04-22.00 14.20-21.89Q14.35-21.78 14.54-21.73L14.54-21.73Q15.16-21.55 15.79-21.24Q16.43-20.93 16.94-20.45Q17.46-19.98 17.77-19.37Q18.09-18.77 18.09-18.04L18.09-18.04Q18.09-17.68 18-17.35Q17.91-17.01 17.91-16.65L17.91-16.65Q17.59-16.02 17.23-15.46Q16.88-14.89 16.25-14.49L16.25-14.49Q16.16-14.40 16.00-14.38Q15.84-14.35 15.75-14.26L15.75-14.26Q15.30-13.95 14.45-13.52Q13.59-13.09 12.64-12.73Q11.70-12.38 10.80-12.11Q9.90-11.83 9.27-11.79L9.27-11.79L9.27-11.70Q9.27-11.38 9.54-11.16Q9.81-10.93 10.19-10.82Q10.57-10.71 10.96-10.64Q11.34-10.57 11.52-10.48L11.52-10.48L11.61-10.44L11.70-10.44L11.74-10.39Q11.79-10.39 11.90-10.46Q12.01-10.53 12.06-10.53L12.06-10.53Q12.15-10.53 12.15-10.57L12.15-10.57L12.24-10.57L13.09-10.57Q13.14-10.57 13.37-10.69Q13.59-10.80 13.72-10.84L13.72-10.84L13.95-10.84Q14.31-10.84 14.54-10.96Q14.76-11.07 15.12-11.07L15.12-11.07Q15.16-11.07 15.25-11.05Q15.34-11.03 15.39-11.03L15.39-11.03L15.48-11.03Q15.62-11.03 15.71-11.09Q15.79-11.16 15.88-11.21L15.88-11.21Q16.25-11.29 16.65-11.38Q17.05-11.47 17.41-11.47L17.41-11.47Q18.36-11.47 19.21-11.07Q20.07-10.66 20.07-9.49L20.07-9.49Q20.07-9.31 19.93-9.09L19.93-9.09Q19.75-8.87 19.48-8.48Q19.21-8.10 18.95-7.88L18.95-7.88Q18.81-7.79 18.63-7.72Q18.45-7.65 18.31-7.56L18.31-7.56Q18.09-7.42 17.95-7.25Q17.82-7.06 17.59-6.93L17.59-6.93Q17.37-6.79 17.10-6.75Q16.83-6.71 16.61-6.57L16.61-6.57Q15.52-5.94 14.40-5.22Q13.28-4.50 11.97-4.46L11.97-4.46L10.75-4.05Q10.62-4.00 10.35-4.00L10.35-4.00Q9.86-4.00 9.36-4.16Q8.87-4.32 8.41-4.41L8.41-4.41Q8.01-4.50 7.60-4.48Q7.20-4.46 6.79-4.59L6.79-4.59Q5.63-5.00 4.75-5.94Q3.87-6.88 3.24-7.92L3.24-7.92Q2.97-8.41 2.61-8.98Q2.25-9.54 2.25-10.17L2.25-10.17Q2.25-10.39 2.29-10.57Q2.34-10.75 2.34-10.98L2.34-10.98Q2.34-11.21 2.32-11.36Q2.29-11.52 2.29-11.74L2.29-11.74ZM12.51-19.21Q12.42-19.21 12.33-19.26Q12.24-19.30 12.15-19.30L12.15-19.30Q12.11-19.30 11.79-19.10Q11.47-18.90 11.14-18.68Q10.80-18.45 10.53-18.22Q10.26-18 10.21-17.95L10.21-17.95Q9.81-17.23 9.34-16.34Q8.87-15.43 8.87-14.67L8.87-14.67Q8.87-14.35 8.91-14.13L8.91-14.13L9.04-14.13Q9.27-14.13 9.45-14.22Q9.63-14.31 9.81-14.40L9.81-14.40Q10.84-14.80 11.99-15.19Q13.14-15.57 14.04-16.34L14.04-16.34Q14.08-16.38 14.22-16.38L14.22-16.38Q14.35-16.38 14.40-16.43L14.40-16.43Q14.80-16.65 15.03-16.94Q15.25-17.23 15.52-17.59L15.52-17.59Q15.52-18.45 14.76-18.90Q13.99-19.35 13.23-19.35L13.23-19.35Q13.00-19.35 12.85-19.28Q12.69-19.21 12.51-19.21L12.51-19.21Z" transform="translate(-2.25, 27.135)"></path></g></g><g transform="translate(118.83000000000001, 0)"><g fill="#333" transform="translate(0,3)"><path d="M2.25-17.28Q2.25-17.73 2.36-18.11Q2.48-18.50 2.52-18.95L2.52-18.95Q2.52-19.08 2.79-19.62Q3.06-20.16 3.15-20.38L3.15-20.38Q3.38-20.88 3.78-21.20Q4.18-21.51 4.63-21.82L4.63-21.82Q4.77-21.96 4.91-22.12Q5.04-22.27 5.17-22.41L5.17-22.41Q5.49-22.72 6.17-22.93Q6.84-23.13 7.25-23.13L7.25-23.13Q7.79-23.13 8.28-23.06Q8.78-22.99 9.31-22.90L9.31-22.90Q9.99-22.81 10.48-22.72Q10.98-22.63 11.56-22.09L11.56-22.09Q11.88-21.91 12.17-21.82Q12.46-21.73 12.73-21.51L12.73-21.51Q12.91-21.33 13.12-21.13Q13.32-20.93 13.50-20.70L13.50-20.70Q14.22-20.11 14.51-19.62Q14.80-19.13 14.80-18.18L14.80-18.18Q14.80-17.73 14.63-17.32Q14.45-16.92 14.26-16.47L14.26-16.47Q14.17-16.29 14.13-16.06Q14.08-15.84 13.90-15.62L13.90-15.62Q13.77-15.43 13.48-15.23Q13.18-15.03 12.82-14.92Q12.46-14.80 12.08-14.74Q11.70-14.67 11.43-14.67L11.43-14.67Q10.89-14.67 10.57-14.74Q10.26-14.80 10.04-14.94Q9.81-15.07 9.58-15.30Q9.36-15.52 9-15.84L9-15.84Q8.73-16.02 8.39-16.18Q8.05-16.34 7.79-16.52L7.79-16.52Q7.47-16.74 7.31-17.12Q7.15-17.50 6.71-17.50L6.71-17.50Q6.12-17.50 5.87-16.92Q5.63-16.34 5.63-15.84L5.63-15.84Q5.63-15.79 5.65-15.68Q5.67-15.57 5.67-15.52L5.67-15.52Q5.67-15.43 5.71-15.19Q5.76-14.94 5.76-14.85L5.76-14.85Q5.94-14.76 5.94-14.58Q5.94-14.40 6.12-14.26L6.12-14.26Q6.93-13.81 7.76-13.54Q8.59-13.28 9.40-12.82L9.40-12.82Q9.86-12.60 10.24-12.29Q10.62-11.97 11.07-11.70L11.07-11.70Q11.12-11.61 11.38-11.32Q11.65-11.03 11.74-10.93L11.74-10.93Q11.83-10.89 11.86-10.82Q11.88-10.75 11.97-10.66L11.97-10.66Q12.46-9.76 12.46-8.64L12.46-8.64Q12.46-7.51 11.99-6.68Q11.52-5.85 10.73-5.33Q9.95-4.81 8.93-4.57Q7.92-4.32 6.93-4.32L6.93-4.32Q6.39-4.32 5.76-4.54L5.76-4.54Q5.67-4.54 5.40-4.77Q5.13-5.00 5.13-5.22L5.13-5.22Q5.13-5.54 5.24-5.80Q5.35-6.08 5.76-6.08L5.76-6.08Q5.98-6.08 6.17-6.01Q6.34-5.94 6.57-5.94L6.57-5.94Q7.15-5.94 7.90-6.08Q8.64-6.21 9.25-6.52Q9.86-6.84 10.28-7.33Q10.71-7.83 10.71-8.59L10.71-8.59Q10.71-9.27 10.51-9.54Q10.30-9.81 9.76-10.26L9.76-10.26Q9.18-10.80 8.32-11.05Q7.47-11.29 6.61-11.52Q5.76-11.74 5.02-12.01Q4.27-12.29 3.78-12.82L3.78-12.82Q3.69-12.91 3.67-13.05Q3.65-13.18 3.55-13.28L3.55-13.28Q2.83-14.04 2.54-15.14Q2.25-16.25 2.25-17.28L2.25-17.28Z" transform="translate(-2.25, 27.135)"></path></g></g><g transform="translate(135.38500000000002, 0)"><g fill="#333" transform="translate(0,3)"><path d="M2.25-17.28Q2.25-17.73 2.36-18.11Q2.48-18.50 2.52-18.95L2.52-18.95Q2.52-19.08 2.79-19.62Q3.06-20.16 3.15-20.38L3.15-20.38Q3.38-20.88 3.78-21.20Q4.18-21.51 4.63-21.82L4.63-21.82Q4.77-21.96 4.91-22.12Q5.04-22.27 5.17-22.41L5.17-22.41Q5.49-22.72 6.17-22.93Q6.84-23.13 7.25-23.13L7.25-23.13Q7.79-23.13 8.28-23.06Q8.78-22.99 9.31-22.90L9.31-22.90Q9.99-22.81 10.48-22.72Q10.98-22.63 11.56-22.09L11.56-22.09Q11.88-21.91 12.17-21.82Q12.46-21.73 12.73-21.51L12.73-21.51Q12.91-21.33 13.12-21.13Q13.32-20.93 13.50-20.70L13.50-20.70Q14.22-20.11 14.51-19.62Q14.80-19.13 14.80-18.18L14.80-18.18Q14.80-17.73 14.63-17.32Q14.45-16.92 14.26-16.47L14.26-16.47Q14.17-16.29 14.13-16.06Q14.08-15.84 13.90-15.62L13.90-15.62Q13.77-15.43 13.48-15.23Q13.18-15.03 12.82-14.92Q12.46-14.80 12.08-14.74Q11.70-14.67 11.43-14.67L11.43-14.67Q10.89-14.67 10.57-14.74Q10.26-14.80 10.04-14.94Q9.81-15.07 9.58-15.30Q9.36-15.52 9-15.84L9-15.84Q8.73-16.02 8.39-16.18Q8.05-16.34 7.79-16.52L7.79-16.52Q7.47-16.74 7.31-17.12Q7.15-17.50 6.71-17.50L6.71-17.50Q6.12-17.50 5.87-16.92Q5.63-16.34 5.63-15.84L5.63-15.84Q5.63-15.79 5.65-15.68Q5.67-15.57 5.67-15.52L5.67-15.52Q5.67-15.43 5.71-15.19Q5.76-14.94 5.76-14.85L5.76-14.85Q5.94-14.76 5.94-14.58Q5.94-14.40 6.12-14.26L6.12-14.26Q6.93-13.81 7.76-13.54Q8.59-13.28 9.40-12.82L9.40-12.82Q9.86-12.60 10.24-12.29Q10.62-11.97 11.07-11.70L11.07-11.70Q11.12-11.61 11.38-11.32Q11.65-11.03 11.74-10.93L11.74-10.93Q11.83-10.89 11.86-10.82Q11.88-10.75 11.97-10.66L11.97-10.66Q12.46-9.76 12.46-8.64L12.46-8.64Q12.46-7.51 11.99-6.68Q11.52-5.85 10.73-5.33Q9.95-4.81 8.93-4.57Q7.92-4.32 6.93-4.32L6.93-4.32Q6.39-4.32 5.76-4.54L5.76-4.54Q5.67-4.54 5.40-4.77Q5.13-5.00 5.13-5.22L5.13-5.22Q5.13-5.54 5.24-5.80Q5.35-6.08 5.76-6.08L5.76-6.08Q5.98-6.08 6.17-6.01Q6.34-5.94 6.57-5.94L6.57-5.94Q7.15-5.94 7.90-6.08Q8.64-6.21 9.25-6.52Q9.86-6.84 10.28-7.33Q10.71-7.83 10.71-8.59L10.71-8.59Q10.71-9.27 10.51-9.54Q10.30-9.81 9.76-10.26L9.76-10.26Q9.18-10.80 8.32-11.05Q7.47-11.29 6.61-11.52Q5.76-11.74 5.02-12.01Q4.27-12.29 3.78-12.82L3.78-12.82Q3.69-12.91 3.67-13.05Q3.65-13.18 3.55-13.28L3.55-13.28Q2.83-14.04 2.54-15.14Q2.25-16.25 2.25-17.28L2.25-17.28Z" transform="translate(-2.25, 27.135)"></path></g></g></g> <!----></g><mask id="9cb83452-c417-4504-ad7c-811e7e11c89c"><rect x="0" y="0" width="30.435" height="30.345000000000002" fill="white"></rect> <g transform="translate(3.0024998474121087,3)" fill="black"><path d="M3.69-17.64Q3.69-18.09 3.87-18.40Q4.05-18.72 4.23-19.13L4.23-19.13Q4.32-19.48 4.34-19.87Q4.37-20.25 4.50-20.56L4.50-20.56Q4.86-21.33 5.42-21.76Q5.98-22.18 6.71-22.50L6.71-22.50Q7.11-22.63 7.33-22.79Q7.56-22.95 7.96-22.95L7.96-22.95Q8.82-22.95 9.92-22.61Q11.03-22.27 11.56-21.69L11.56-21.69Q11.74-21.55 11.81-21.24Q11.88-20.93 11.97-20.63Q12.06-20.34 12.11-20.11Q12.15-19.89 12.20-19.89L12.20-19.89Q12.24-19.89 12.31-19.93Q12.38-19.98 12.42-19.98L12.42-19.98L13.46-19.98Q13.50-19.98 13.59-20.00Q13.68-20.02 13.72-20.02L13.72-20.02Q14.85-20.02 15.77-19.39Q16.70-18.77 16.96-17.64L16.96-17.64Q16.96-17.64 17.28-17.95Q17.59-18.27 18.04-18.70Q18.50-19.13 19.08-19.46Q19.66-19.80 20.20-19.80L20.20-19.80L20.56-19.80Q21.46-19.39 21.80-18.77Q22.14-18.13 22.32-17.23L22.32-17.23L22.36-17.10Q22.27-16.70 22.43-16.31Q22.59-15.93 22.59-15.52L22.59-15.52Q22.59-15.25 22.61-14.76Q22.63-14.26 22.63-14.22L22.63-14.22Q22.68-13.72 22.79-13.23Q22.90-12.73 22.90-12.24L22.90-12.24Q22.90-12.15 22.84-12.04Q22.77-11.92 22.77-11.83L22.77-11.83Q22.77-11.79 22.84-11.72Q22.90-11.65 22.90-11.61L22.90-11.61L22.90-11.34Q22.90-11.21 22.86-11.07Q22.81-10.93 22.81-10.80L22.81-10.80Q22.81-10.57 22.95-10.48L22.95-10.48Q23.04-9.63 23.11-8.98Q23.18-8.32 23.58-7.65L23.58-7.65Q23.85-7.56 24.21-7.56L24.21-7.56Q24.52-7.56 24.84-7.69Q25.15-7.83 25.52-7.83L25.52-7.83Q25.88-7.83 26.28-7.69Q26.68-7.56 26.68-7.02L26.68-7.02Q26.68-6.61 26.37-6.28Q26.05-5.94 25.58-5.71Q25.11-5.49 24.61-5.35Q24.12-5.22 23.85-5.22L23.85-5.22Q22.27-5.22 21.35-6.12Q20.43-7.02 20.02-8.41L20.02-8.41Q19.93-8.78 19.98-9.16Q20.02-9.54 19.80-9.86L19.80-9.86L19.80-11.03L19.75-16.06L19.71-16.52Q19.44-16.25 19.01-15.71Q18.59-15.16 18.18-14.51Q17.77-13.86 17.46-13.25Q17.14-12.64 17.05-12.24L17.05-12.24Q16.96-11.65 16.94-10.98Q16.92-10.30 16.52-9.72L16.52-9.72Q16.52-9.40 16.36-8.87Q16.20-8.32 15.93-7.83Q15.66-7.33 15.30-6.97Q14.94-6.61 14.49-6.61L14.49-6.61Q14.22-6.61 13.88-6.79Q13.54-6.97 13.28-7.25Q13.00-7.51 12.80-7.85Q12.60-8.19 12.60-8.50L12.60-8.50Q12.60-9.58 13.12-10.57Q13.63-11.56 13.90-12.55L13.90-12.55Q14.13-13.54 14.26-14.38Q14.40-15.21 14.40-16.20L14.40-16.20Q14.35-16.47 14.33-16.85Q14.31-17.23 14.04-17.37L14.04-17.37L13.86-17.37Q13.46-17.37 13.07-17.19Q12.69-17.01 12.29-16.96L12.29-16.96Q11.92-16.61 11.50-16.20Q11.07-15.79 11.03-15.25L11.03-15.25Q10.98-15.03 11.03-14.85Q11.07-14.67 10.98-14.40L10.98-14.40Q10.89-14.17 10.69-13.99Q10.48-13.81 10.39-13.54L10.39-13.54Q10.13-12.87 10.08-12.24Q10.04-11.61 9.99-10.89L9.99-10.89Q9.99-10.62 9.74-10.28Q9.49-9.95 9.36-9.63L9.36-9.63Q9.31-9.58 9.20-9.29Q9.09-9 9.09-8.96L9.09-8.96Q8.91-8.50 8.84-7.94Q8.78-7.38 8.50-6.97L8.50-6.97Q8.01-6.12 7.13-5.83Q6.25-5.54 5.31-5.54L5.31-5.54Q4.32-5.54 3.46-5.96Q2.61-6.39 2.34-7.38L2.34-7.38Q2.29-7.96 2.27-8.62Q2.25-9.27 2.25-9.90L2.25-9.90Q2.25-10.75 2.34-11.68Q2.43-12.60 2.56-13.46L2.56-13.46Q2.61-13.86 2.70-14.20Q2.79-14.54 2.83-14.94L2.83-14.94Q2.83-15.03 2.88-15.12Q2.92-15.21 2.92-15.25L2.92-15.25Q3.01-15.66 3.42-16.22Q3.82-16.79 3.82-16.96L3.82-16.96Q3.73-17.19 3.71-17.30Q3.69-17.41 3.69-17.64L3.69-17.64Z" transform="translate(-2.25, 27.135)"></path></g></mask></svg>